<!-- <?xml version="1.0" encoding="utf-8"?> -->
<!-- Generator: Adobe Illustrator 24.0.2, SVG Export Plug-In . SVG Version: 6.00 Build 0)  -->
<svg version="1.1" id="Layer_1" xmlns="http://www.w3.org/2000/svg" xmlns:xlink="http://www.w3.org/1999/xlink"
	 viewBox="355 360 90 80" width="15" height="15" xml:space="preserve" style="pointer-events: none !important">
<style type="text/css">
	.st0{fill:#44EA87;}
	.st1{fill:#FFA836;}
	.st2{fill:#8F48FF;}
</style>
<g>
	<g>
		<circle class="st0" cx="388.9" cy="398.9" r="8.2"/>
		<circle class="st1" cx="411.1" cy="398.9" r="8.2"/>
		<path d="M422.3,419.7c-6.7,7.7-17,11.9-27.8,10.1c-7.3-1.2-14-5-18.7-10.8l-1.3-1.6l-9.5,5.1l4.4-27.4c1.3-8,5.6-15,12.2-19.7
			c6.6-4.7,14.6-6.6,22.5-5.3c6.6,1.1,12.4,4.3,16.8,8.8c1.5-0.9,3-1.6,4.7-2.2c-5.2-5.9-12.3-10.1-20.6-11.5
			c-9.3-1.5-18.6,0.7-26.2,6.2c-7.6,5.5-12.7,13.6-14.2,22.9l-6.1,37.3l14.8-7.9c5.3,5.9,12.5,9.8,20.4,11c1.9,0.3,3.8,0.5,5.7,0.5
			c11,0,21.2-5.2,27.8-13.6C425.5,421.2,423.8,420.5,422.3,419.7z" fill="#fff" />
		<circle class="st2" cx="433.2" cy="398.9" r="8.2"/>
	</g>
</g>
</svg>
