<?xml version="1.0" encoding="UTF-8" standalone="no"?>
<svg
   xmlns:dc="http://purl.org/dc/elements/1.1/"
   xmlns:cc="http://creativecommons.org/ns#"
   xmlns:rdf="http://www.w3.org/1999/02/22-rdf-syntax-ns#"
   xmlns:svg="http://www.w3.org/2000/svg"
   xmlns="http://www.w3.org/2000/svg"
   xmlns:sodipodi="http://sodipodi.sourceforge.net/DTD/sodipodi-0.dtd"
   xmlns:inkscape="http://www.inkscape.org/namespaces/inkscape"
   version="1.1"
   id="Layer_1"
   viewBox="355 360 90 80"
   width="15"
   height="15"
   xml:space="preserve"
   style="pointer-events: none !important"
   sodipodi:docname="codelingo-logo-notify-1.svg"
   inkscape:version="1.0.1 (3bc2e813f5, 2020-09-07)"><metadata
   id="metadata78"><rdf:RDF><cc:Work
       rdf:about=""><dc:format>image/svg+xml</dc:format><dc:type
         rdf:resource="http://purl.org/dc/dcmitype/StillImage" /><dc:title /></cc:Work></rdf:RDF></metadata><defs
   id="defs76"><filter
     style="color-interpolation-filters:sRGB;"
     inkscape:label="Drop Shadow"
     id="filter986"><feFlood
       flood-opacity="0.498039"
       flood-color="rgb(0,0,0)"
       result="flood"
       id="feFlood976" /><feComposite
       in="flood"
       in2="SourceGraphic"
       operator="in"
       result="composite1"
       id="feComposite978" /><feGaussianBlur
       in="composite1"
       stdDeviation="0.5"
       result="blur"
       id="feGaussianBlur980" /><feOffset
       dx="0.5"
       dy="0.5"
       result="offset"
       id="feOffset982" /><feComposite
       in="SourceGraphic"
       in2="offset"
       operator="over"
       result="composite2"
       id="feComposite984" /></filter></defs><sodipodi:namedview
   pagecolor="#ffffff"
   bordercolor="#666666"
   borderopacity="1"
   objecttolerance="10"
   gridtolerance="10"
   guidetolerance="10"
   inkscape:pageopacity="0"
   inkscape:pageshadow="2"
   inkscape:window-width="1920"
   inkscape:window-height="1017"
   id="namedview74"
   showgrid="false"
   showguides="true"
   inkscape:guide-bbox="true"
   inkscape:snap-page="true"
   inkscape:zoom="14.166667"
   inkscape:cx="9.9802772"
   inkscape:cy="-0.10447644"
   inkscape:window-x="-8"
   inkscape:window-y="209"
   inkscape:window-maximized="1"
   inkscape:current-layer="layer3"
   inkscape:document-rotation="0"><sodipodi:guide
     position="54,73.411765"
     orientation="1,0"
     id="guide80" /><sodipodi:guide
     position="54,48"
     orientation="0,-1"
     id="guide82" /><sodipodi:guide
     position="89.894118,63.811765"
     orientation="1,0"
     id="guide909" /><sodipodi:guide
     position="20.964706,79.905882"
     orientation="0,-1"
     id="guide911" /></sodipodi:namedview>
<style
   type="text/css"
   id="style59">
	.st0{fill:#AAA;}
	.st1{fill:#AAA;}
	.st2{fill:#AAA;}
</style>

<text
   xml:space="preserve"
   style="font-style:normal;font-weight:normal;font-size:240px;line-height:1.25;font-family:sans-serif;fill:#ffffff;fill-opacity:1;stroke:none;stroke-width:6;"
   x="427.1748"
   y="372.51962"
   id="text915"><tspan
     sodipodi:role="line"
     id="tspan913"
     x="427.1748"
     y="372.51962"
     style="stroke-width:6;fill:#ffffff;">1</tspan></text><g
   inkscape:groupmode="layer"
   id="layer2"
   inkscape:label="Background"><g
     id="g71"><g
       id="g69"><circle
         class="st0"
         cx="388.89999"
         cy="398.89999"
         r="8.1999998"
         id="circle61" /><circle
         class="st1"
         cx="411.10001"
         cy="398.89999"
         r="8.1999998"
         id="circle63" /><path
         d="m 422.3,419.7 c -6.7,7.7 -17,11.9 -27.8,10.1 -7.3,-1.2 -14,-5 -18.7,-10.8 l -1.3,-1.6 -9.5,5.1 4.4,-27.4 c 1.3,-8 5.6,-15 12.2,-19.7 6.6,-4.7 14.6,-6.6 22.5,-5.3 6.6,1.1 12.4,4.3 16.8,8.8 1.5,-0.9 3,-1.6 4.7,-2.2 -5.2,-5.9 -12.3,-10.1 -20.6,-11.5 -9.3,-1.5 -18.6,0.7 -26.2,6.2 -7.6,5.5 -12.7,13.6 -14.2,22.9 l -6.1,37.3 14.8,-7.9 c 5.3,5.9 12.5,9.8 20.4,11 1.9,0.3 3.8,0.5 5.7,0.5 11,0 21.2,-5.2 27.8,-13.6 -1.7,-0.4 -3.4,-1.1 -4.9,-1.9 z"
         fill="#aaaaaa"
         id="path65" /><circle
         class="st2"
         cx="433.20001"
         cy="398.89999"
         r="8.1999998"
         id="circle67" /></g></g><g
     id="g924"
     transform="matrix(1.556213,0,0,1.5675935,-247.39702,-201.5558)"
     style="filter:url(#filter986)"><path
       id="path84"
       style="fill:#34A853;fill-opacity:1;stroke-width:8.23002"
       d="m 444.78825,373.05295 a 17.894117,17.94706 0 0 1 -17.89412,17.94706 17.894117,17.94706 0 0 1 -17.89411,-17.94706 17.894117,17.94706 0 0 1 17.89411,-17.94706 17.894117,17.94706 0 0 1 17.89412,17.94706 z" /></g></g><g
   inkscape:groupmode="layer"
   id="layer3"
   inkscape:label="Text Lines"
   style="display:inline"><g
     aria-label="1"
     id="text928-0"
     style="font-style:normal;font-variant:normal;font-weight:bold;font-stretch:normal;font-size:48px;line-height:1.25;font-family:'Segoe UI';-inkscape-font-specification:'Segoe UI, Bold';font-variant-ligatures:normal;font-variant-caps:normal;font-variant-numeric:normal;font-variant-east-asian:normal;display:inline;opacity:0.979;fill:#000000;fill-opacity:1;stroke:none;stroke-width:10.8422"><path
       d="m 422.50809,365.02966 v 34.35938 h -7.38282 v -26.01563 q -0.60937,0.53907 -1.45312,1.03125 -0.82031,0.46875 -1.75781,0.86719 -0.9375,0.375 -1.94532,0.65625 -1.00781,0.25781 -1.99218,0.375 v -6.23437 q 2.88281,-0.84375 5.4375,-2.15625 2.55468,-1.3125 4.61718,-2.88282 z"
       style="font-style:normal;font-variant:normal;font-weight:bold;font-stretch:normal;font-size:48px;font-family:'Segoe UI';-inkscape-font-specification:'Segoe UI, Bold';font-variant-ligatures:normal;font-variant-caps:normal;font-variant-numeric:normal;font-variant-east-asian:normal;fill:#ffffff;stroke-width:10.8422"
       id="path988" /></g></g><g
   inkscape:groupmode="layer"
   id="layer1"
   inkscape:label="Text"
   style="display:none;opacity:0.979"><text
     xml:space="preserve"
     style="font-style:normal;font-variant:normal;font-weight:bold;font-stretch:normal;font-size:48px;line-height:1.25;font-family:'Segoe UI';-inkscape-font-specification:'Segoe UI, Bold';font-variant-ligatures:normal;font-variant-caps:normal;font-variant-numeric:normal;font-variant-east-asian:normal;fill:#000000;fill-opacity:1;stroke:none;stroke-width:10.8422"
     x="403.00809"
     y="399.38904"
     id="text928"><tspan
       sodipodi:role="line"
       id="tspan926"
       x="403.00809"
       y="399.38904"
       style="font-style:normal;font-variant:normal;font-weight:bold;font-stretch:normal;font-size:48px;font-family:'Segoe UI';-inkscape-font-specification:'Segoe UI, Bold';font-variant-ligatures:normal;font-variant-caps:normal;font-variant-numeric:normal;font-variant-east-asian:normal;fill:#ffffff;stroke-width:10.8422">1</tspan></text></g></svg>
