<svg xmlns="http://www.w3.org/2000/svg" viewBox="355 360 90 80" width="15" height="15" pointer-events="none"><circle cx="388.9" cy="398.9" r="8.2" fill="#aaa"/><circle cx="411.1" cy="398.9" r="8.2" fill="#aaa"/><path d="M422.3 419.7c-6.7 7.7-17 11.9-27.8 10.1-7.3-1.2-14-5-18.7-10.8l-1.3-1.6-9.5 5.1 4.4-27.4c1.3-8 5.6-15 12.2-19.7 6.6-4.7 14.6-6.6 22.5-5.3 6.6 1.1 12.4 4.3 16.8 8.8 1.5-.9 3-1.6 4.7-2.2-5.2-5.9-12.3-10.1-20.6-11.5-9.3-1.5-18.6.7-26.2 6.2-7.6 5.5-12.7 13.6-14.2 22.9l-6.1 37.3 14.8-7.9c5.3 5.9 12.5 9.8 20.4 11 1.9.3 3.8.5 5.7.5 11 0 21.2-5.2 27.8-13.6-1.7-.4-3.4-1.1-4.9-1.9z" fill="#AAA"/><circle cx="433.2" cy="398.9" r="8.2" fill="#aaa"/></svg>